<svg height="473pt" viewBox="-8 0 473 473.93202" width="473pt" xmlns="http://www.w3.org/2000/svg"><path d="m63.878906 471.53125c1.511719 1.546875 3.589844 2.410156 5.75 2.402344h.121094c2.207031-.035156 4.296875-.980469 5.785156-2.609375l21.597656-23.6875 64.472657-70.679688 10.175781-9.753906 15.273438-4.800781c1.179687-.371094 2.261718-1.011719 3.152343-1.871094l17.246094-16.6875c3.179687-3.070312 3.265625-8.136719.191406-11.3125l-17.476562-18.128906c-.9375-.96875-1.402344-2.304688-1.265625-3.648438.132812-1.34375.851562-2.558594 1.960937-3.324218l2.613281-1.800782c6.449219 5.25 14.5 8.144532 22.816407 8.199219 3.800781-.003906 7.578125-.585937 11.203125-1.726563 4.214844-1.328124 6.554687-5.820312 5.230468-10.035156-1.324218-4.214844-5.816406-6.554687-10.03125-5.230468-4.929687 1.503906-10.246093 1.125-14.914062-1.0625l10.921875-7.53125c.472656-.324219.910156-.699219 1.304687-1.117188l101.886719-108.921875 38.617188 70.265625 14.015625-7.703125-29.792969-54.234375 53.199219 31.59375 8.175781-13.761719-76.558594-45.449219 103.289063-99.910156 23.039062-22.246094c.761719-.738281 1.367188-1.621093 1.785156-2.59375.3125-.796874.496094-1.640624.542969-2.496093 0-.183594.113281-.34375.113281-.527344s-.097656-.402344-.113281-.609375c-.023437-.816406-.171875-1.625-.441406-2.398438-.382813-.988281-.960937-1.886718-1.695313-2.648437l-22.289062-23.039063c-1.472656-1.53125-3.496094-2.4062495-5.617188-2.445312-2.125-.0351562-4.175781.773438-5.703124 2.25l-132.246094 127.929688-51.753906 50.0625-11.117188-11.503907 16.542969-16 27.703125-16c.582031-.324219 1.117187-.71875 1.601562-1.175781l23-22.246094c3.175782-3.070312 3.261719-8.136718.191406-11.3125l-33.367187-34.496094c-3.070313-3.175781-8.136719-3.261718-11.3125-.191406l-23.023437 22.238282c-.472657.453124-.886719.964843-1.226563 1.519531l-16.917969 27.160156-80.074218 77.433594-27.695313 16c-.578125.324219-1.117187.71875-1.597656 1.175781l-22.96875 22.257812c-3.175781 3.070313-3.257813 8.136719-.183594 11.308594l33.367187 34.496094c1.476563 1.507812 3.488282 2.371094 5.601563 2.402344h.125c2.089844.007812 4.097656-.796875 5.601563-2.25l23-22.253906c.46875-.453126.878906-.960938 1.222656-1.511719l16.945312-27.121094 17.503906-16.9375 11.121094 11.503906-51.746094 50.058594c-2.484374 2.386719-3.160156 6.097656-1.679687 9.207031l2.289063 4.800782c3.671874 7.664062 2.027343 16.816406-4.078126 22.726562-6.109374 5.910156-15.3125 7.25-22.851562 3.328125l-4.695312-2.449219c-2.894532-1.511718-6.421876-1.113281-8.902344 1.007813l-97.570313 83.21875c-1.679687 1.433593-2.691406 3.496093-2.792969 5.703125-.105468 2.207031.707032 4.359375 2.242188 5.945312zm364-452.214844 11.128906 11.503906-11.503906 11.121094-11.121094-11.496094zm-23.039062 22.289063 11.125 11.503906-97.75 94.511719-7.417969-7.671875-3.703125-3.832031zm-147.800782 42.765625 22.238282 23-11.496094 11.121094-22.246094-23zm-21.449218 23.863281 19.128906 19.769531-14.28125 8.246094-6.78125-7.007812-6.785156-7.015626zm-19 26.402344 11.128906 11.496093-11.503906 11.117188-11.121094-11.492188zm10.402344 56.742187-23.027344 22.226563-11.125-11.496094 23-22.242187zm-109.671876 72.625-22.242187-22.96875 11.496094-11.128906 22.242187 23zm21.4375-23.863281-19.121093-19.777344 14.28125-8.246093 12.601562 13.03125.949219.992187zm19-26.402344-5.558593-5.734375-5.5625-5.753906 12.441406-12.015625 11.121094 11.496094zm24-23.199219-11.121093-11.503906 22.992187-22.246094 11.128906 11.503907zm-74.679687 138.527344c13.574219 7.023438 30.109375 4.644532 41.148437-5.921875 11.042969-10.570312 14.144532-26.984375 7.722657-40.851562l139.640625-135.050781 16.6875 17.257812.265625.28125-103.648438 110.789062-27.113281 18.707032c-4.980469 3.433594-8.199219 8.886718-8.796875 14.910156-.601563 6.019531 1.480469 12 5.6875 16.351562l11.910156 12.320313-10.136719 9.808594-15.269531 4.800781c-1.183593.371094-2.265625 1.015625-3.152343 1.878906l-11.847657 11.480469-37.496093 41.097656-13.554688-14.011719-11.480469 11.089844 14.242188 14.726563-10.800781 11.839843-46.558594-48.125zm-74.742187 63.808594 47.941406 49.601562-10.800782 11.816407-49.34375-51.007813zm0 0"/><path d="m65.398438 381.042969 11.5-11.125 11.125 11.5-11.5 11.125zm0 0"/><path d="m191.90625 258.679688 11.5-11.125 11.121094 11.5-11.5 11.125zm0 0"/><path d="m214.902344 236.425781 11.5-11.125 11.125 11.5-11.5 11.125zm0 0"/></svg>