<?xml version="1.0" encoding="iso-8859-1"?>
<!-- Generator: Adobe Illustrator 18.0.0, SVG Export Plug-In . SVG Version: 6.00 Build 0)  -->
<!DOCTYPE svg PUBLIC "-//W3C//DTD SVG 1.1//EN" "http://www.w3.org/Graphics/SVG/1.1/DTD/svg11.dtd">
<svg version="1.1" id="Capa_1" xmlns="http://www.w3.org/2000/svg" xmlns:xlink="http://www.w3.org/1999/xlink" x="0px" y="0px"
	 viewBox="0 0 473.577 473.577" style="enable-background:new 0 0 473.577 473.577;" xml:space="preserve">
<g>
	<path d="M214.557,272.824c-2.833-4.306-7.398-7.076-12.526-7.6c-5.125-0.522-10.159,1.266-13.804,4.912l-29.816,29.816
		c-5.771,5.77-6.643,14.864-2.076,21.625l80.77,119.605c2.862,4.239,7.424,6.95,12.515,7.439c0.552,0.053,1.102,0.079,1.649,0.079
		c4.508,0,8.829-1.776,12.055-5.001l28.563-28.564c5.697-5.698,6.619-14.72,2.189-21.454L214.557,272.824L214.557,272.824z
		 M282.693,405.943l-28.563,28.564c-1.182,1.181-2.557,1.242-3.269,1.174c-0.713-0.068-2.05-0.39-2.984-1.774L167.108,314.3
		c-1.089-1.612-0.881-3.78,0.494-5.156l29.816-29.816c0.986-0.986,2.105-1.193,2.869-1.193c0.157,0,0.3,0.009,0.423,0.021
		c0.719,0.073,2.062,0.406,2.986,1.812c0.001,0,0.001,0,0.001,0l79.518,120.857C284.272,402.432,284.052,404.584,282.693,405.943z"
		/>
	<path d="M403.765,52.276l-10.627-10.628c1.601-2.514,1.309-5.887-0.886-8.082L360.59,1.904C359.37,0.685,357.717,0,355.993,0
		s-3.377,0.685-4.596,1.904l-9.23,9.23c-0.275-0.468-0.605-0.913-1.007-1.315c-2.539-2.539-6.655-2.539-9.192,0l-12.233,12.233
		c-2.539,2.538-2.539,6.654,0,9.192c0.402,0.402,0.846,0.733,1.314,1.007L92.616,260.683l-4.039-4.039
		c-2.537-2.538-6.653-2.538-9.192,0c-2.538,2.538-2.538,6.654,0.001,9.192l4.039,4.038l-1.725,1.725
		c-12.716,12.717-15.544,32.603-6.877,48.36l1.341,2.439c-0.949,0.655-1.85,1.392-2.685,2.227c-3.591,3.59-5.568,8.362-5.57,13.438
		c-0.002,5.076,1.974,9.848,5.563,13.436c3.705,3.705,8.572,5.558,13.439,5.558c4.589,0,9.164-1.668,12.779-4.96
		c5.6,1.964,11.905,1.914,17.775-0.554c17.172-7.217,37.296-1.312,47.844,14.045l68.791,100.152
		c3.049,4.439,7.874,7.267,13.236,7.76c0.559,0.051,1.115,0.077,1.67,0.077c4.771,0,9.348-1.881,12.759-5.292l50.439-50.441
		c6.018-6.016,7.002-15.55,2.341-22.669l-48.392-73.917c-5.244-8.01-4.136-18.736,2.634-25.506l39.188-39.189
		c11.755-11.754,13.098-30.647,3.124-43.947l-6.669-8.891c-8.377-11.17-7.25-27.037,2.622-36.91l34.106-34.106
		c1.22-1.219,1.904-2.872,1.904-4.596c0-1.591-0.59-3.118-1.639-4.303l62.341-62.341C406.303,58.93,406.303,54.815,403.765,52.276z
		 M355.993,15.692l22.47,22.47L157.381,259.244l-22.471-22.47l49.823-49.823l9.077,9.077c1.269,1.269,2.933,1.904,4.596,1.904
		s3.327-0.635,4.596-1.904l51.085-51.085c1.22-1.219,1.904-2.872,1.904-4.596s-0.685-3.377-1.904-4.596l-9.076-9.076L355.993,15.692
		z M92.145,324.481l-5.932-10.785c-4.825-8.773-4.407-19.424,0.643-27.747l21.911,21.91L92.145,324.481z M117.958,298.667
		l-22.471-22.47l3.949-3.949l22.47,22.471L117.958,298.667z M131.099,285.526l-22.47-22.471l3.948-3.948l22.471,22.47
		L131.099,285.526z M144.24,272.385l-22.471-22.47l3.949-3.949l22.471,22.47L144.24,272.385z M240.299,140.347l-41.893,41.892
		l-4.48-4.48l41.893-41.893L240.299,140.347z M82.663,342.306c-1.132-1.132-1.756-2.637-1.755-4.24c0-1.534,0.578-2.977,1.621-4.094
		l3.678,6.687c0.63,1.146,1.355,2.205,2.131,3.21C86.365,344.351,84.2,343.844,82.663,342.306z M251.699,269.394
		c-6.384-4.762-10.375-12.048-10.95-19.991c-0.477-6.582,1.439-13.052,5.312-18.282c0.479,9.688,4.401,19.213,11.714,26.527
		c1.4,1.4,2.901,2.699,4.447,3.851c4.805,3.601,10.34,5.7,16.003,6.392C270.991,274.711,259.707,275.4,251.699,269.394z
		 M300.699,220.417c6.158,8.21,5.341,19.698-1.915,26.955l-1.811,1.811l0,0c-7.207,7.207-18.793,8.029-26.969,1.902
		c-1.058-0.788-2.079-1.673-3.036-2.629c-9.812-9.813-10.635-25.496-2.115-36.282c0.399-0.505,0.861-0.965,1.374-1.355
		c8.399-6.402,20.193-6.015,28.212,1.253L300.699,220.417z M297.86,157.623c-9.728,9.728-13.632,23.44-11.391,36.343
		c-11.123-2.238-23.062,0.99-31.729,9.657l-15.229,15.228c-8.302,8.302-12.577,19.78-11.729,31.491
		c0.848,11.71,6.731,22.453,16.129,29.463c4.814,3.61,10.363,5.712,16.039,6.4l-0.357,0.357
		c-11.099,11.099-12.914,28.687-4.317,41.819l48.392,73.917c1.308,1.996,1.031,4.669-0.655,6.355l-50.44,50.441
		c-1.462,1.461-3.165,1.543-4.046,1.462c-0.884-0.081-2.541-0.472-3.712-2.176l-68.791-100.152
		c-10.004-14.565-26.485-22.735-43.402-22.735c-6.791,0-13.654,1.317-20.193,4.066c-4.872,2.047-10.375,0.588-13.612-3.363
		l218.318-218.319l10.237,10.237L297.86,157.623z M332.245,114.603l-5.919-5.919l57.731-57.731l5.919,5.919L332.245,114.603z"/>
	<path d="M225.355,377.067c5.271,0,10.225-2.052,13.95-5.779c3.728-3.727,5.779-8.681,5.779-13.951s-2.052-10.225-5.778-13.951
		c0,0,0,0-0.001,0c-3.726-3.726-8.681-5.779-13.95-5.779c-5.271,0-10.225,2.052-13.952,5.779
		c-7.691,7.692-7.691,20.209,0.001,27.902C215.131,375.015,220.085,377.067,225.355,377.067z M220.595,352.579
		c1.271-1.271,2.962-1.971,4.76-1.971s3.487,0.7,4.758,1.971l0.001,0c1.271,1.271,1.971,2.961,1.971,4.759
		c0,1.797-0.7,3.487-1.972,4.759c-1.271,1.271-2.96,1.971-4.758,1.971s-3.488-0.7-4.759-1.971
		C217.972,359.472,217.972,355.202,220.595,352.579z"/>
</g>
<g>
</g>
<g>
</g>
<g>
</g>
<g>
</g>
<g>
</g>
<g>
</g>
<g>
</g>
<g>
</g>
<g>
</g>
<g>
</g>
<g>
</g>
<g>
</g>
<g>
</g>
<g>
</g>
<g>
</g>
</svg>
